<?xml version="1.0" encoding="UTF-8" standalone="no"?>
<svg
   xmlns:dc="http://purl.org/dc/elements/1.1/"
   xmlns:cc="http://creativecommons.org/ns#"
   xmlns:rdf="http://www.w3.org/1999/02/22-rdf-syntax-ns#"
   xmlns:svg="http://www.w3.org/2000/svg"
   xmlns="http://www.w3.org/2000/svg"
   height="94.649002"
   width="94.362999"
   id="svg2"
   xml:space="preserve"
   enable-background="new 0 0 100 100"
   viewBox="0 0 94.362999 94.649002"
   y="0px"
   x="0px"
   version="1.1"><metadata
     id="metadata22"><rdf:RDF><cc:Work
         rdf:about=""><dc:format>image/svg+xml</dc:format><dc:type
           rdf:resource="http://purl.org/dc/dcmitype/StillImage" /><dc:title></dc:title></cc:Work></rdf:RDF></metadata><defs
     id="defs20" /><path
     style="display:none"
     id="path4"
     d="m 60.016,94.752 -24.766,0 -6.651,-12.998 0,-22.821 -11.515,-11.686 0,-24.448 4.909,-9.368 -10.888,0 0,-16.328 15.239,7.663 0,5.382 42.778,-0.095 0,-5.39 15.241,-7.663 0,16.33 -10.892,0 4.945,9.471 0,24.458 -11.785,11.685 0,22.807 -6.615,13.001 z m -22.759,-3.279 20.747,0 4.312,-8.475 -29.395,0 4.336,8.475 z m -5.377,-11.755 31.47,0 0,-14.546 -2.67,5.307 -2.929,-1.475 4.578,-9.103 -8.237,0 -6.344,6.44 -6.307,-6.44 -8.49,0 4.756,9.079 -2.905,1.521 -2.921,-5.575 0,14.792 z m 0,-23.095 10.94,0 4.936,5.038 4.963,-5.038 10.631,0 0,-35.061 10.722,0 -4.299,-8.231 -44.076,0.1 -4.256,8.122 10.439,-0.031 0,35.101 z m 34.751,-20.229 0,17.934 8.507,-8.437 0,-9.497 -8.507,0 z m -46.266,9.508 8.234,8.356 0,-17.87 -8.234,-0.023 0,9.537 z m 46.266,-12.789 8.507,0 0,-8.271 -8.507,0 0,8.271 z m -46.266,-0.028 8.234,0.024 0,-8.295 -8.234,0.025 0,8.246 z m -5.98,-22.933 8.679,0 0,-3.365 -8.679,-4.363 0,7.728 z m 58.019,-0.103 8.679,0 0,-7.728 -8.679,4.364 0,3.364 z"
     display="none" /><path
     style="display:none"
     id="path6"
     d="m 64.707,95.334 -11.457,0 0,-3.312 3.326,0 -5.066,-15.948 3.862,-11.865 -8.113,8.208 -7.747,-7.655 3.75,11.317 -5.283,15.943 3.538,0 0,3.312 -11.665,0 0,-3.312 4.637,0 5.283,-15.943 -5.45,-16.445 -0.121,-0.118 -0.208,0 0,-0.206 -5.797,-5.729 0,-13.363 5.797,-6.104 0,-23.246 L 47.702,-3 l 12.794,13.902 0,23.155 5.867,5.934 0,13.095 -5.81,5.907 -5.564,17.092 5.063,15.937 4.654,0 0,3.312 z m -27.401,-37.409 9.924,9.808 10.08,-10.199 -0.079,-6.75 -9.53,10.061 -10.395,-10.218 0,7.298 z m 0,-11.943 10.311,10.134 9.567,-10.1 0,-21.287 -19.878,0 0,21.253 z m -5.797,6.214 2.485,2.455 0,-15.727 -2.485,2.616 0,10.656 z m 28.988,-5.529 0.088,7.554 2.466,-2.495 0,-10.373 -2.554,-2.583 0,7.897 z m -17.648,-25.251 8.691,0 -4.302,-2.447 -4.389,2.447 z m 10.66,-2.692 3.675,2.089 0,-2.089 -3.675,0 z m -16.203,0 0,1.99 3.568,-1.99 -3.568,0 z m 9.947,-3.557 4.34,2.468 0,-11.515 -3.978,-4.32 -4.442,4.494 0,11.147 4.08,-2.274 z m 7.653,0.244 2.278,0 0,-3.217 -2.278,-2.4739999 0,5.6909999 z m -17.6,0 2.554,0 0,-5.766 -2.554,2.584 0,3.182 z"
     display="none" /><path
     style="display:none"
     id="path8"
     d="m 76.722,95 -23.096,0 0,-3.279 23.097,0 0,3.279 z m -34.713,0 -23.508,0 0,-3.279 23.508,0 0,3.279 z m 23.634,-11.754 -35.85,0 -12.932,-12.563 0,-24.544 11.952,-11.815 -0.205,-22.943 12.71,-13.006 13.006,0 12.496,13.014 -0.206,22.944 11.749,11.814 0,24.526 -12.72,12.573 z m -34.518,-3.279 33.169,0 4.928,-4.87 0,-33.49 -4.693,-4.72 -16.814,5.725 -16.824,-5.728 -4.788,4.731 0,33.473 5.022,4.879 z m -10.984,-10.67 2.682,2.604 0,-27.044 -2.682,2.651 0,21.789 z m 52.361,-24.391 0,26.949 2.581,-2.549 0,-21.806 -2.581,-2.594 z m -38.355,-10.379 13.567,4.619 13.603,-4.632 -13.441,-9.087 -13.729,9.1 z m -2.134,-9.229 0.059,6.669 10.061,-6.669 -10.12,0 z m 21.529,0 9.814,6.636 0.059,-6.636 -9.873,0 z M 34.15,10.403 l 9.498,0 0,13.89 4.246,-2.813 4.092,2.766 0,-13.843 9.34,0 -8.4,-8.748 -10.228,0 -8.548,8.748 z m 21.115,11.615 8.179,0 0.075,-8.335 -8.254,0 0,8.335 z m -23.281,0 8.384,0 0,-8.335 -8.459,0 0.075,8.335 z"
     display="none" /><path
     style="display:none"
     id="path10"
     d="M 65.669,95 29.492,95 5.149,70.731 l 0,-48.219 12.242,-13.139 25.149,0 5.202,5.504 5.081,-5.504 24.724,0 12.816,13.116 0,48.25 L 65.669,95 Z m -33.839,-3.31 31.506,0 0,-3.157 -15.586,-5.3 -15.92,5.307 0,3.15 z m 34.816,-3.651 0,1.361 20.407,-20.05 0,-45.513 -10.899,-11.154 -21.882,0 -6.502,7.042 -6.656,-7.042 -22.283,0 -10.373,11.131 0,45.543 20.063,20.002 0,-1.298 -6.205,-5.86 0,-25.205 9.423,-3.154 -15.283,0 0,-14.893 15.375,0 0,14.862 6.988,-2.34 -0.951,-0.939 19.776,0 -0.95,0.939 6.54,2.189 0,-14.711 15.374,0 0,14.893 -14.835,0 8.803,2.946 0,25.392 -5.93,5.859 z m -41.021,-7.265 4.966,4.69 15.51,-5.169 0,-21.625 -4.645,-4.591 -15.831,5.298 0,21.397 z m 23.786,-0.471 15.146,5.149 4.71,-4.655 0,-21.628 -15.211,-5.09 -4.645,4.591 0,21.633 z m -3.487,-26.461 1.833,1.81 1.832,-1.81 -3.665,0 z m 20.62,-3.31 8.755,0 0,-8.274 -8.755,0 0,8.274 z m -46.779,0 8.756,0 0,-8.274 -8.756,0 0,8.274 z M 87.525,12.461 75.667,0.326 78.034,-1.986 89.892,10.149 87.525,12.461 Z M 8.002,12.169 5.606,9.8860001 16.913,-1.972 19.308,0.312 8.002,12.169 Z"
     display="none" /><path
     id="path12"
     d="m 67.397,94.649 -40.805,0 -14.072,-27.5 0,-12.53 L 0,41.563 l 0,-28.68 14.01,0 L 47.188,0 l 32.561,12.884 14.614,0 0,28.669 -13.131,13.97 0,11.619 -13.835,27.507 z m -37.851,-3.664 34.89,0 0,-9.467 -34.89,0 0,9.467 z m -13.361,-24.719 9.696,18.948 0,-30.891 -6.643,-13.058 0,-14.41 14.532,-14.364 13.217,6.589 13.133,-6.586 14.774,14.352 0,14.428 -6.795,13.057 0,30.766 9.467,-18.823 0,-50.313 -30.391,-12.024 -30.99,12.033 0,50.296 z m 13.361,11.588 34.89,0 0,-22.652 -17.556,-5.875 -17.334,5.869 0,22.658 z M 46.873,45.46 65.366,51.648 71.23,40.377 71.23,28.395 59.436,16.938 46.993,23.178 34.482,16.94 22.904,28.386 l 0,12 5.724,11.252 18.245,-6.178 z m 34.359,-28.912 0,33.624 9.467,-10.071 0,-23.553 -9.467,0 z M 3.664,40.09 l 8.856,9.234 0,-32.776 -8.856,0 0,23.542 z m 35.637,27.895 -6.451,-6.644 2.629,-2.554 6.451,6.644 -2.629,2.554 z m 15.63,-0.025 -2.674,-2.505 6.222,-6.643 2.675,2.506 -6.223,6.642 z m -12.483,-25.302 -16.567,0 0,-16.87 16.567,0 0,16.87 z m -12.902,-3.664 9.238,0 0,-9.542 -9.238,0 0,9.542 z m 38.554,3.608 -16.567,0 0,-16.871 16.567,0 0,16.871 z m -12.902,-3.665 9.237,0 0,-9.541 -9.237,0 0,9.541 z" /></svg>